static_grf.mot
version=1
nRows=10
nColumns 19
inDegrees=yes
endheader
time	1_ground_force_vx	1_ground_force_vy	1_ground_force_vz	1_ground_force_px	1_ground_force_py	1_ground_force_pz	1_ground_torque_x	1_ground_torque_y	1_ground_torque_z	2_ground_force_vx	2_ground_force_vy	2_ground_force_vz	2_ground_force_px	2_ground_force_py	2_ground_force_pz	2_ground_torque_x	2_ground_torque_y	2_ground_torque_z
            0.491000	           -2.882407	          350.452121	          -44.301482	           -0.253756	            0.006269	           -0.416970	           -0.041096	            4.996542	           -0.631625	            0.588806	          542.908920	           45.016590	           -0.267998	            0.005408	           -0.667410	           -0.005099	           -4.701133	           -0.389806
            0.491500	           -2.974420	          350.993263	          -44.390647	           -0.253841	            0.006268	           -0.416627	           -0.042352	            4.997691	           -0.632065	            0.685788	          541.988829	           44.919409	           -0.268124	            0.005408	           -0.667406	           -0.005983	           -4.728255	           -0.391872
            0.492000	           -2.607058	          351.352685	          -44.114876	           -0.253829	            0.006267	           -0.416574	           -0.037341	            5.032463	           -0.631862	            0.637753	          542.355769	           45.249239	           -0.268100	            0.005408	           -0.667553	           -0.005519	           -4.693027	           -0.391544
            0.492500	           -2.790251	          350.991922	          -44.070107	           -0.253720	            0.006269	           -0.417010	           -0.039861	            5.014189	           -0.629575	            0.541957	          542.908751	           45.016610	           -0.267968	            0.005409	           -0.667582	           -0.004655	           -4.663311	           -0.386670
            0.493000	           -2.469593	          350.451807	          -44.210794	           -0.253686	            0.006269	           -0.416836	           -0.035648	            5.058660	           -0.638169	            0.736064	          541.067397	           45.150744	           -0.268215	            0.005407	           -0.667298	           -0.006434	           -4.729760	           -0.394687
            0.493500	           -2.607382	          350.632409	          -44.301391	           -0.253947	            0.006269	           -0.416823	           -0.037830	            5.087242	           -0.642758	            0.451621	          541.987313	           45.107221	           -0.268195	            0.005407	           -0.667437	           -0.003916	           -4.699028	           -0.391079
            0.494000	           -2.698939	          351.172826	          -44.207133	           -0.253626	            0.006267	           -0.416512	           -0.038792	            5.047389	           -0.635387	            0.497765	          542.172019	           45.014002	           -0.268083	            0.005408	           -0.667459	           -0.004296	           -4.679669	           -0.388531
            0.494500	           -2.974045	          350.812438	          -44.253848	           -0.253587	            0.006268	           -0.416641	           -0.042402	            5.001687	           -0.630947	            0.687220	          541.619710	           45.152735	           -0.268218	            0.005407	           -0.667293	           -0.005968	           -4.703198	           -0.392087
            0.495000	           -2.744651	          350.451754	          -44.210111	           -0.253532	            0.006269	           -0.416953	           -0.039067	            4.988234	           -0.629275	            0.732679	          541.988663	           45.013245	           -0.268127	            0.005407	           -0.667372	           -0.006356	           -4.701800	           -0.390494
            0.495500	           -3.019660	          350.812036	          -44.162023	           -0.253511	            0.006268	           -0.416738	           -0.042543	            4.942433	           -0.622179	            0.545198	          541.988656	           44.825612	           -0.268276	            0.005407	           -0.667299	           -0.004679	           -4.651600	           -0.384714
